<?xml version='1.0' encoding='iso-8859-1'?>
<svg version="1.1" xmlns="http://www.w3.org/2000/svg" viewBox="0 0 44 44" xmlns:xlink="http://www.w3.org/1999/xlink" fill="#ff2f4f">
  <path d="M22,0C9.8,0,0,9.8,0,22s9.8,22,22,22s22-9.8,22-22S34.2,0,22,0z M31.7,25.7l-9,9C22.5,34.9,22.2,35,22,35  c-0.3,0-0.5-0.1-0.7-0.3l-9-9C12.1,25.5,12,25.3,12,25s0.1-0.5,0.3-0.7l1.4-1.4c0.4-0.4,1-0.4,1.4,0l4,4c0.3,0.3,0.9,0.1,0.9-0.4V10  c0-0.6,0.4-1,1-1h2c0.6,0,1,0.4,1,1v16.6c0,0.4,0.5,0.7,0.9,0.4l4-4c0.4-0.4,1-0.4,1.4,0l1.4,1.4c0.2,0.2,0.3,0.4,0.3,0.7  C32,25.3,31.9,25.5,31.7,25.7z"/>
</svg>
