<?xml version="1.0" encoding="iso-8859-1"?>
<!-- Generator: Adobe Illustrator 19.0.0, SVG Export Plug-In . SVG Version: 6.00 Build 0)  -->
<svg version="1.1" id="Layer_1" xmlns="http://www.w3.org/2000/svg" xmlns:xlink="http://www.w3.org/1999/xlink" x="0px" y="0px"
	 viewBox="0 0 455 455" fill="#fff" xml:space="preserve">
<path d="M379.16,18.871L348.82,0l-30.336,18.871L288.15,0l-30.335,18.871L227.481,0L197.15,18.871L166.821,0l-30.327,18.871
	L106.162,0L75.831,18.871L45.5,7v441l30.34-11.871L106.18,455l30.336-18.871L166.85,455l30.335-18.871L227.519,455l30.331-18.871
	L288.179,455l30.327-18.871L348.838,455l30.331-18.871L409.5,448V7L379.16,18.871z M263.368,262.037H121.632v-30h141.735V262.037z
	 M263.368,192.037H121.632v-30h141.735V192.037z M263.368,122.037H121.632v-30h141.735V122.037z M333.368,381.835h-40v-30h40
	V381.835z M333.368,262.037h-40v-30h40V262.037z M333.368,192.037h-40v-30h40V192.037z M333.368,122.037h-40v-30h40V122.037z"/>
<g>
</g>
<g>
</g>
<g>
</g>
<g>
</g>
<g>
</g>
<g>
</g>
<g>
</g>
<g>
</g>
<g>
</g>
<g>
</g>
<g>
</g>
<g>
</g>
<g>
</g>
<g>
</g>
<g>
</g>
</svg>
