<?xml version="1.0" encoding="iso-8859-1"?>
<!-- Generator: Adobe Illustrator 18.1.1, SVG Export Plug-In . SVG Version: 6.00 Build 0)  -->
<svg version="1.1" id="Capa_1" xmlns="http://www.w3.org/2000/svg" xmlns:xlink="http://www.w3.org/1999/xlink" x="0px" y="0px"
	 viewBox="0 0 609.563 609.563"  xml:space="preserve">
<g>
	<g>
		<path fill="#fff" d="M304.171,204.813c16.659,0,30.782,5.791,42.362,17.373c11.582,11.582,17.373,25.703,17.373,42.365
			c0,16.661-5.791,30.783-17.373,42.365c-11.58,11.581-25.703,17.372-42.362,17.372c-16.661,0-30.783-5.791-42.364-17.372
			c-11.582-11.582-17.373-25.704-17.373-42.365c0-16.662,5.791-30.783,17.373-42.365
			C273.389,210.604,287.51,204.813,304.171,204.813z M452.904,265.77c0-20.319-3.857-39.418-11.582-57.299
			c-7.721-17.881-18.287-33.526-31.695-46.937c-13.41-13.411-29.057-24.078-46.938-32.002s-36.979-11.886-57.298-11.886h-0.61
			h-0.608c-20.318,0-39.418,3.962-57.299,11.886c-17.88,7.924-33.526,18.592-46.936,32.002
			c-13.41,13.41-23.976,29.056-31.697,46.937c-7.721,17.88-11.582,36.98-11.582,57.299v0.609v3.657c0,0.813,0.203,1.422,0.609,1.829
			c0,8.127,1.016,16.865,3.048,26.211c0.813,5.689,3.657,13.816,8.534,24.383c4.877,10.565,10.769,22.146,17.678,34.744
			c6.908,12.598,14.325,25.703,22.249,39.317c7.924,13.611,15.543,26.211,22.858,37.793c7.314,11.581,13.817,21.537,19.506,29.868
			c5.689,8.331,9.753,13.715,12.191,16.151c3.251,3.251,7.01,6.705,11.277,10.362s8.432,6.908,12.496,9.753
			c4.063,2.845,7.721,5.08,10.972,6.706c3.251,1.625,5.486,2.438,6.705,2.438c1.222,0,3.355-0.812,6.4-2.438
			c3.049-1.626,6.604-3.76,10.668-6.4c4.063-2.642,8.229-5.791,12.496-9.446c4.268-3.658,8.229-7.315,11.887-10.975
			c2.438-2.438,6.502-7.821,12.191-16.152c5.688-8.33,12.189-18.39,19.506-30.174c7.313-11.783,14.934-24.383,22.855-37.793
			c7.928-13.411,15.344-26.517,22.25-39.315c6.908-12.803,12.699-24.382,17.373-34.745c4.672-10.362,7.619-18.388,8.838-24.077
			c0.813-4.47,1.424-8.839,1.828-13.105c0.406-4.267,0.813-8.636,1.223-13.106v-1.829c0-0.812,0.102-1.422,0.305-1.829
			s0.305-1.016,0.305-1.829v-0.608L452.904,265.77L452.904,265.77z M304.781,0c41.858,0,81.377,8.026,118.563,24.078
			c37.182,16.052,69.486,37.793,96.92,65.223c27.43,27.43,49.17,59.737,65.223,96.92c16.049,37.184,24.076,76.704,24.076,118.56
			c0,28.04-3.658,55.063-10.973,81.071s-17.576,50.289-30.783,72.843s-29.055,43.076-47.545,61.566
			c-18.49,18.487-39.014,34.338-61.566,47.546c-22.553,13.207-46.834,23.468-72.842,30.78
			c-26.008,7.314-53.033,10.975-81.073,10.975s-55.063-3.658-81.071-10.975c-26.008-7.313-50.289-17.573-72.843-30.78
			c-22.554-13.208-43.076-29.059-61.565-47.546c-18.49-18.49-34.339-39.015-47.546-61.566
			c-13.208-22.554-23.469-46.834-30.784-72.843C3.658,359.844,0,332.822,0,304.781s3.657-55.063,10.972-81.072
			c7.315-26.008,17.576-50.289,30.783-72.842c13.207-22.554,29.056-43.076,47.546-61.566s39.012-34.339,61.565-47.546
			s46.835-23.468,72.843-30.783S276.741,0,304.781,0z"/>
	</g>
</g>
<g>
</g>
<g>
</g>
<g>
</g>
<g>
</g>
<g>
</g>
<g>
</g>
<g>
</g>
<g>
</g>
<g>
</g>
<g>
</g>
<g>
</g>
<g>
</g>
<g>
</g>
<g>
</g>
<g>
</g>
</svg>
